<?xml version="1.0" encoding="UTF-8"?>
<svg version="1.1" xmlns="http://www.w3.org/2000/svg" width="512" height="512">
<path d="M0 0 C2.87457016 2.06298842 5.29158735 4.00831919 7.48046875 6.8046875 C9.65628437 8.90396496 9.65628437 8.90396496 12.875 8.2734375 C14.21733574 7.95566076 15.55699198 7.6264584 16.89453125 7.2890625 C38.86694293 2.7757474 63.00391824 4.60567764 84.70703125 9.5390625 C85.64627441 9.74805176 86.58551758 9.95704102 87.55322266 10.17236328 C121.43056236 17.89147038 157.52153553 31.96391122 186.33984375 51.625 C188.73688704 52.79336074 188.73688704 52.79336074 191.51171875 51.98046875 C195.38566629 50.23293007 199.02849015 48.22411265 202.70703125 46.1015625 C243.00515329 23.41155251 287.75279558 5.38616181 334.58203125 5.2890625 C335.68303162 5.28306534 335.68303162 5.28306534 336.80627441 5.27694702 C346.2181525 5.24055758 355.38864972 5.45496563 364.54248047 7.91113281 C366.64586994 8.48266483 366.64586994 8.48266483 369.70703125 8.5390625 C372.48809858 6.37265228 372.48809858 6.37265228 374.70703125 3.5390625 C385.63578227 -5.26071105 397.10736679 -6.61281228 410.70703125 -5.4609375 C421.6857294 -3.72517495 431.92643949 2.7983425 438.70703125 11.5390625 C446.05227345 23.98916802 447.82243293 36.76864596 445.0234375 51.01953125 C442.75538776 57.69192655 439.03951114 63.93053514 433.44140625 68.3125 C431.34212879 70.48831562 431.34212879 70.48831562 431.97265625 73.70703125 C432.29043299 75.04936699 432.61963535 76.38902323 432.95703125 77.7265625 C437.46671598 99.68130023 435.66505557 123.85566966 430.70703125 145.5390625 C430.48740723 146.50489258 430.2677832 147.47072266 430.04150391 148.46582031 C423.74721419 175.4337113 413.32875454 200.48378033 401.01953125 225.2265625 C400.23618408 226.80171631 400.23618408 226.80171631 399.43701172 228.40869141 C396.22463104 234.77390817 392.75119883 240.8074072 388.82104492 246.76098633 C387.39793376 249.55124962 387.39793376 249.55124962 388.41186523 252.68676758 C389.94108807 256.05451694 391.7057187 259.2326685 393.58203125 262.4140625 C416.69261493 302.80278564 434.84764664 348.33413833 434.95703125 395.4140625 C434.96169403 396.14872742 434.96635681 396.88339233 434.97116089 397.64031982 C435.01402622 406.34091249 434.69306269 414.63839075 432.76953125 423.1640625 C431.57037721 428.07959536 431.57037721 428.07959536 432.890625 432.8125 C434.66588196 434.58014054 434.66588196 434.58014054 436.71875 435.9765625 C442.03558817 440.15482433 444.19966941 448.20947671 445.70703125 454.5390625 C445.99282159 457.31657675 446.04160758 460.0607992 446.01953125 462.8515625 C446.01107178 463.97413452 446.01107178 463.97413452 446.00244141 465.11938477 C445.73866875 477.18371917 441.17538784 487.00230177 432.95703125 495.8515625 C428.73398309 499.85617714 424.07665887 502.36764569 418.70703125 504.5390625 C417.81628906 504.90515625 416.92554688 505.27125 416.0078125 505.6484375 C405.33761534 508.52749662 391.39308581 507.99269598 381.70703125 502.5390625 C377.98418493 500.16709568 374.66863098 497.7952063 371.97265625 494.2734375 C369.72232162 492.15136874 369.72232162 492.15136874 366.25 492.8046875 C364.79551236 493.12079112 363.34385523 493.45007018 361.89453125 493.7890625 C307.4411912 504.33296297 246.37020644 481.7775032 200.296875 453.9296875 C199.6562915 453.54312988 199.01570801 453.15657227 198.35571289 452.75830078 C196.72627633 451.75305169 195.11781996 450.71400174 193.51171875 449.671875 C190.74546604 448.26124938 190.74546604 448.26124938 187.80078125 449.0859375 C184.20329816 450.7756644 180.75812748 452.65656768 177.33203125 454.6640625 C169.91941766 458.9151745 162.39344586 462.83522783 154.70605469 466.56396484 C152.7534783 467.51640623 150.81222302 468.48932978 148.87109375 469.46484375 C129.18382023 479.20803524 108.11766766 486.65756098 86.70703125 491.5390625 C85.81113281 491.74789063 84.91523438 491.95671875 83.9921875 492.171875 C61.83959827 497.13656876 37.06093486 498.04775164 14.83642578 493.13256836 C11.86435844 492.56037948 10.17204151 492.29613473 7.44140625 493.72265625 C5.66580266 495.49654157 5.66580266 495.49654157 4.26953125 497.55078125 C0.09126942 502.86761942 -7.96338296 505.03170066 -14.29296875 506.5390625 C-17.070483 506.82485284 -19.81470545 506.87363883 -22.60546875 506.8515625 C-23.72804077 506.84310303 -23.72804077 506.84310303 -24.87329102 506.83447266 C-36.88842438 506.57177573 -46.66943568 502.02845301 -55.54296875 493.9140625 C-65.40978164 483.54690413 -66.76848403 472.09005584 -66.5703125 458.55078125 C-66.21198422 448.95792316 -62.62162181 441.64297556 -56.29296875 434.5390625 C-55.5453125 433.95382812 -54.79765625 433.36859375 -54.02734375 432.765625 C-51.92806629 430.58980938 -51.92806629 430.58980938 -52.55859375 427.37109375 C-52.87640906 426.02876714 -53.20560947 424.689111 -53.54296875 423.3515625 C-64.67323469 369.11378233 -41.58324317 307.14426747 -13.74609375 261.25 C-13.36138916 260.61368652 -12.97668457 259.97737305 -12.58032227 259.32177734 C-11.56253918 257.67208765 -10.51304238 256.04207779 -9.4609375 254.4140625 C-8.00854592 251.58430672 -8.00854592 251.58430672 -8.8515625 248.59375 C-10.46326234 245.17816932 -12.25110668 241.91366035 -14.16796875 238.6640625 C-37.3131462 198.26877139 -55.43354881 152.7591902 -55.54296875 105.6640625 C-55.54763153 104.92939758 -55.55229431 104.19473267 -55.55709839 103.43780518 C-55.59996372 94.73721251 -55.27900019 86.43973425 -53.35546875 77.9140625 C-52.15631471 72.99852964 -52.15631471 72.99852964 -53.4765625 68.265625 C-55.25181946 66.49798446 -55.25181946 66.49798446 -57.3046875 65.1015625 C-62.61955893 60.92484624 -64.79019836 52.86791051 -66.29296875 46.5390625 C-67.96490306 30.88754042 -64.61591447 18.95879147 -54.7734375 6.63671875 C-41.69577176 -7.90462734 -16.23544152 -10.34421657 0 0 Z " fill="#343333" transform="translate(66.29296875,5.4609375)"/>
<path d="M0 0 C0.7541922 0.00215515 1.5083844 0.0043103 2.28543091 0.00653076 C32.59202295 0.14444925 69.06052499 4.35308088 91.875 26.625 C98.49874711 33.56416364 103.0326669 41.19122981 103.08467102 50.93348694 C103.09540398 52.31884644 103.09540398 52.31884644 103.10635376 53.73219299 C103.10904266 54.73846237 103.11173157 55.74473175 103.11450195 56.78149414 C103.12107315 57.84705536 103.12764435 58.91261658 103.13441467 60.01046753 C103.15413587 63.53953117 103.16580928 67.06855223 103.17578125 70.59765625 C103.17985678 71.80487272 103.1839323 73.0120892 103.18813133 74.25588799 C103.20898956 80.64869897 103.22329096 87.04148852 103.23266602 93.43432617 C103.24371462 100.02253538 103.27809786 106.61040537 103.31783772 113.19849491 C103.34404501 118.27647001 103.35236166 123.35436489 103.35594749 128.43240166 C103.36080475 130.859952 103.37239397 133.28749897 103.39098549 135.71498299 C103.41545785 139.12283926 103.4143964 142.52982603 103.4074707 145.93774414 C103.42668579 147.42589378 103.42668579 147.42589378 103.44628906 148.94410706 C103.35793798 160.94652848 98.95189152 169.92573527 90.85546875 178.5234375 C80.16027446 188.9171089 67.01895702 194.15966352 52.9375 198.3125 C52.07511719 198.59738281 51.21273437 198.88226563 50.32421875 199.17578125 C12.1069057 211.06154847 -38.48136398 207.45809043 -74.0625 189.3125 C-86.42231346 182.63820073 -94.74615111 174.43248957 -100.0625 161.3125 C-100.93650912 158.37475501 -101.19335939 155.74550054 -101.20967102 152.68478394 C-101.21682632 151.75976578 -101.22398163 150.83474762 -101.23135376 149.88169861 C-101.23404266 148.87385818 -101.23673157 147.86601776 -101.23950195 146.82763672 C-101.24607315 145.76046921 -101.25264435 144.6933017 -101.25941467 143.59379578 C-101.27913421 140.05992562 -101.29080827 136.52609797 -101.30078125 132.9921875 C-101.30485678 131.78372288 -101.3089323 130.57525826 -101.31313133 129.33017349 C-101.33398782 122.93203147 -101.34829055 116.53391085 -101.35766602 110.13574219 C-101.36872047 103.53846683 -101.40311098 96.94152967 -101.44283772 90.3443737 C-101.46902812 85.26214994 -101.47736011 80.18000641 -101.48094749 75.0977211 C-101.4858083 72.66655319 -101.49740773 70.23538874 -101.51598549 67.80428696 C-101.54042413 64.39383181 -101.53940261 60.98424701 -101.5324707 57.57373047 C-101.54528076 56.57803543 -101.55809082 55.58234039 -101.57128906 54.55647278 C-101.48524969 42.88512886 -96.77754812 34.49653108 -89.015625 26.09765625 C-66.6847497 4.17892798 -29.84053887 -0.15527892 0 0 Z " fill="#333334" transform="translate(255.0625,153.6875)"/>
<path d="M0 0 C3.22489237 1.93001192 6.39007956 3.91668879 9.49609375 6.03125 C10.15504639 6.47629883 10.81399902 6.92134766 11.49291992 7.37988281 C13.52044594 8.75564344 15.54099787 10.14097385 17.55859375 11.53125 C18.14350586 11.93408203 18.72841797 12.33691406 19.33105469 12.75195312 C34.15512266 23.02334319 48.29285202 34.20340597 61.86865234 46.06787109 C63.59081353 47.55915022 65.33101658 49.02633638 67.078125 50.48828125 C73.72164769 56.06478068 80.01478524 61.8369304 86.08837891 68.03149414 C88.79881739 70.79224914 91.51581643 73.4321769 94.49609375 75.90625 C100.40623455 80.93483618 105.49696115 86.85162503 110.73730469 92.55712891 C112.49204468 94.45911652 114.26035714 96.34720409 116.03515625 98.23046875 C121.61880873 104.16411221 127.04072917 110.14819356 132.1328125 116.515625 C133.98685954 118.82049507 135.86237686 121.09569265 137.765625 123.359375 C145.54977958 132.64044048 152.90709807 142.12893156 159.83642578 152.06591797 C161.05644322 153.81240734 162.28483882 155.55305782 163.51904297 157.28955078 C165.53150122 160.12745964 167.5166791 162.98272232 169.49609375 165.84375 C170.44742188 167.17841309 170.44742188 167.17841309 171.41796875 168.54003906 C171.98902344 169.37889648 172.56007813 170.21775391 173.1484375 171.08203125 C173.66269287 171.82106689 174.17694824 172.56010254 174.70678711 173.3215332 C175.55859375 175.53125 175.55859375 175.53125 174.80883789 178.14550781 C172.15487414 183.2098573 168.81330164 187.84012196 165.55859375 192.53125 C165.1817041 193.07458984 164.80481445 193.61792969 164.41650391 194.17773438 C154.92964083 207.78214558 144.91362856 220.99735747 134.08984375 233.56640625 C131.77001009 236.28361882 129.53415909 239.04933681 127.30859375 241.84375 C116.32136524 255.24512734 103.84758121 267.33989273 91.62109375 279.59375 C90.93956238 280.27796021 90.25803101 280.96217041 89.55584717 281.66711426 C75.73783479 295.52623808 75.73783479 295.52623808 68.55859375 301.53125 C67.43984809 302.50341814 66.32263878 303.47735731 65.20703125 304.453125 C57.18263823 311.40444643 48.98777573 318.07772133 40.55859375 324.53125 C39.43275879 325.3960498 39.43275879 325.3960498 38.28417969 326.27832031 C29.23043811 333.21380045 20.09592774 339.99170408 10.62109375 346.34375 C9.51266113 347.08999634 9.51266113 347.08999634 8.38183594 347.85131836 C6.46255111 349.11857279 4.52334282 350.33612583 2.55859375 351.53125 C1.28628906 352.31822266 1.28628906 352.31822266 -0.01171875 353.12109375 C-3.25182912 353.66805772 -4.87047549 352.4757741 -7.50146484 350.66088867 C-8.12102051 350.20560791 -8.74057617 349.75032715 -9.37890625 349.28125 C-10.03713379 348.81887939 -10.69536133 348.35650879 -11.37353516 347.88012695 C-12.74190988 346.9153229 -14.10451999 345.94229424 -15.46142578 344.96142578 C-17.27438379 343.65189335 -19.10122071 342.36636504 -20.9375 341.08984375 C-34.19316887 331.82502614 -47.06396269 321.93753684 -59.44140625 311.53125 C-59.96234863 311.09522461 -60.48329102 310.65919922 -61.02001953 310.20996094 C-73.70728636 299.56759605 -85.83734774 288.34671848 -97.44140625 276.53125 C-100.41737358 273.54480391 -103.40766128 270.57311833 -106.40234375 267.60546875 C-107.87375509 266.1432867 -109.34510785 264.6810457 -110.81640625 263.21875 C-111.54601562 262.49751953 -112.275625 261.77628906 -113.02734375 261.03320312 C-117.71436274 256.36710833 -122.14520549 251.55779188 -126.44140625 246.53125 C-127.41469605 245.41348003 -128.38862502 244.29626619 -129.36328125 243.1796875 C-136.31437401 235.15555845 -142.99142448 226.96287711 -149.44140625 218.53125 C-150.3221582 217.38148682 -150.3221582 217.38148682 -151.22070312 216.20849609 C-159.35621516 205.55634863 -167.15162944 194.77833423 -174.44140625 183.53125 C-175.23160156 182.50773438 -176.02179688 181.48421875 -176.8359375 180.4296875 C-178.44140625 177.53125 -178.44140625 177.53125 -177.97265625 175.08984375 C-176.04264378 171.86495046 -174.05589061 168.6998156 -171.94140625 165.59375 C-171.49853271 164.93769775 -171.05565918 164.28164551 -170.59936523 163.60571289 C-162.65296662 151.89057138 -154.30825887 140.56622569 -145.44140625 129.53125 C-144.69117188 128.59667969 -143.9409375 127.66210938 -143.16796875 126.69921875 C-134.14307936 115.57286595 -124.80399751 104.71815201 -115.03271484 94.24023438 C-113.88448114 93.00708987 -112.73935435 91.77104984 -111.59619141 90.53320312 C-103.99439194 82.30307827 -96.34181045 74.28673932 -87.984375 66.8203125 C-85.81204451 64.86488137 -83.73640471 62.86760798 -81.69140625 60.78125 C-78.11458771 57.1532121 -74.30584105 53.84811831 -70.44140625 50.53125 C-69.43309572 49.64770345 -68.42532351 48.76354234 -67.41796875 47.87890625 C-59.07583397 40.59221216 -50.43194917 33.78801637 -41.57617188 27.13818359 C-39.48768264 25.56608431 -37.40884541 23.98200977 -35.33203125 22.39453125 C-26.59322582 15.74001759 -17.63892384 9.53246715 -8.44140625 3.53125 C-7.41273438 2.7371875 -6.3840625 1.943125 -5.32421875 1.125 C-2.44140625 -0.46875 -2.44140625 -0.46875 0 0 Z M-89.44140625 98.53125 C-90.43527344 99.35882813 -90.43527344 99.35882813 -91.44921875 100.203125 C-97.65216854 105.84217027 -103.05324724 114.18346667 -103.57562733 122.72624302 C-103.57990081 123.52682101 -103.58417429 124.32739901 -103.58857727 125.15223694 C-103.59573257 126.07580994 -103.60288788 126.99938293 -103.61026001 127.95094299 C-103.61294891 128.95721237 -103.61563782 129.96348175 -103.6184082 131.00024414 C-103.6249794 132.06580536 -103.6315506 133.13136658 -103.63832092 134.22921753 C-103.65804212 137.75828117 -103.66971553 141.28730223 -103.6796875 144.81640625 C-103.68376303 146.02362272 -103.68783855 147.2308392 -103.69203758 148.47463799 C-103.71289581 154.86744897 -103.72719721 161.26023852 -103.73657227 167.65307617 C-103.74762087 174.24128538 -103.78200411 180.82915537 -103.82174397 187.41724491 C-103.84795126 192.49522001 -103.85626791 197.57311489 -103.85985374 202.65115166 C-103.864711 205.078702 -103.87630022 207.50624897 -103.89489174 209.93373299 C-103.9193641 213.34158926 -103.91830265 216.74857603 -103.91137695 220.15649414 C-103.92418701 221.1485939 -103.93699707 222.14069366 -103.95019531 223.16285706 C-103.86184423 235.16527848 -99.45579777 244.14448527 -91.359375 252.7421875 C-68.32803939 275.12421514 -31.83289326 278.99232475 -1.25390625 278.84375 C-0.44913849 278.84159485 0.35562927 278.8394397 1.18478394 278.83721924 C31.94133135 278.70559404 65.93563701 273.78100302 89.296875 251.88671875 C98.14093334 242.67606732 101.01986093 233.05550283 100.96264648 220.49462891 C100.96950974 219.42833755 100.97637299 218.3620462 100.98344421 217.26344299 C101.00164787 213.76142819 100.99788348 210.25986417 100.9921875 206.7578125 C100.99675259 204.30837866 101.00205914 201.8589461 101.0080719 199.40951538 C101.01699058 194.28369941 101.01459416 189.15803934 101.00463867 184.03222656 C100.99315493 177.4833456 101.01335848 170.93500433 101.04255581 164.38619423 C101.06095634 159.32964697 101.06061754 154.27322809 101.05491829 149.21665573 C101.05476553 146.80307636 101.06077244 144.38948804 101.07320976 141.9759407 C101.08818911 138.59250899 101.07739054 135.21006235 101.06030273 131.82666016 C101.0699707 130.84241562 101.07963867 129.85817108 101.08959961 128.84410095 C100.9733518 117.77877366 97.51196521 109.62073446 89.828125 101.73828125 C89.07917969 101.00996094 88.33023438 100.28164062 87.55859375 99.53125 C87.02621094 98.97824219 86.49382812 98.42523438 85.9453125 97.85546875 C76.4835129 88.78485467 62.895778 84.09392668 50.55859375 80.53125 C49.72328125 80.28608643 48.88796875 80.04092285 48.02734375 79.78833008 C6.52227866 67.95748128 -55.09537916 69.29553144 -89.44140625 98.53125 Z " fill="#FE3131" transform="translate(257.44140625,79.46875)"/>
<path d="M0 0 C0.59938385 0.30327209 1.1987677 0.60654419 1.8163147 0.91900635 C3.50818185 1.77874685 5.19181211 2.65463906 6.875 3.53125 C7.84179688 4.03205078 8.80859375 4.53285156 9.8046875 5.04882812 C12 6.5 12 6.5 13 9.5 C12.13761719 10.05945313 11.27523437 10.61890625 10.38671875 11.1953125 C-15.25777922 27.97865998 -39.06557306 47.2744148 -61.50683594 68.12011719 C-63.00935926 69.5086492 -64.52257581 70.88455493 -66.0390625 72.2578125 C-72.47198324 78.10244832 -78.71801237 84.11507084 -84.875 90.25 C-85.5764917 90.94689941 -86.2779834 91.64379883 -87.00073242 92.36181641 C-90.95785661 96.33069955 -94.7319873 100.40299909 -98.39208984 104.64697266 C-100.65977493 107.26035405 -103.0166203 109.78060588 -105.375 112.3125 C-109.61186417 116.90424681 -113.65405883 121.60954114 -117.5703125 126.48046875 C-119.36164261 128.7066716 -121.16738303 130.91488116 -122.9921875 133.11328125 C-134.95442275 147.57666157 -145.73764298 162.79372898 -156 178.5 C-159.99033481 177.1698884 -160.27050988 175.66121161 -162.1875 171.97265625 C-162.6359729 171.11534157 -162.6359729 171.11534157 -163.09350586 170.2407074 C-164.07439076 168.35391907 -165.03839619 166.45918062 -166 164.5625 C-166.33225586 163.9132959 -166.66451172 163.2640918 -167.00683594 162.59521484 C-185.30857523 126.77408726 -199.91761769 88.27340119 -200.25 47.625 C-200.25950684 46.68575684 -200.26901367 45.74651367 -200.27880859 44.77880859 C-200.20280609 28.80420914 -200.20280609 28.80420914 -196 22.5 C-194.70835937 22.73976563 -194.70835937 22.73976563 -193.390625 22.984375 C-179.56376345 25.08707745 -168.36264665 22.56133715 -157 14.5 C-149.60352682 8.95264511 -144.80906711 -0.11687117 -142.3125 -8.92578125 C-141.88184725 -12.4732833 -141.85538216 -15.99532253 -141.875 -19.5625 C-141.87113281 -20.26955078 -141.86726563 -20.97660156 -141.86328125 -21.70507812 C-141.86967349 -25.10894531 -141.93546188 -28.24724463 -143 -31.5 C-98.70965973 -48.1088776 -38.53138725 -19.69163747 0 0 Z " fill="#FE3131" transform="translate(227,61.5)"/>
<path d="M0 0 C0.66 0 1.32 0 2 0 C3.50055774 2.07411803 4.88282303 4.15207302 6.25 6.3125 C21.7584922 30.15245245 39.98439498 52.25292685 59.30859375 73.08984375 C61.06331439 74.9871832 62.80616015 76.89559548 64.53515625 78.81640625 C70.09338391 84.97824234 75.82995436 90.93396641 81.6875 96.8125 C82.3882666 97.51785889 83.0890332 98.22321777 83.81103516 98.94995117 C87.78745515 102.91467856 91.86565978 106.6962897 96.11791992 110.36303711 C98.91594929 112.79665845 101.6080145 115.33861156 104.3125 117.875 C109.07609048 122.30143039 113.94068151 126.53524673 119.015625 130.60546875 C121.23027542 132.38240685 123.42492381 134.17495802 125.609375 135.98828125 C140.07306347 147.95296981 155.29226276 158.73668496 171 169 C169.65121529 173.04635412 167.15809628 173.82853762 163.5625 175.66015625 C162.89912125 176.00640045 162.23574249 176.35264465 161.55226135 176.7093811 C159.37431569 177.83949328 157.18818755 178.95236136 155 180.0625 C154.25547577 180.44338776 153.51095154 180.82427551 152.74386597 181.21670532 C139.46245798 187.99650267 126.0300003 193.91711369 112 199 C111.20706543 199.29406738 110.41413086 199.58813477 109.59716797 199.89111328 C82.75183916 209.78027507 45.49108905 219.96224549 17 211 C16.01 210.01 16.01 210.01 15 209 C15.27316328 207.32242118 15.62001251 205.65665277 16 204 C16.90293009 189.77885113 14.25732391 178.91168161 5.18359375 167.76953125 C-1.89648185 160.1459347 -11.29602541 155.41158637 -21.75390625 154.76953125 C-23.01074219 154.78371094 -24.26757812 154.79789063 -25.5625 154.8125 C-26.82191406 154.81894531 -28.08132812 154.82539063 -29.37890625 154.83203125 C-32.67228107 154.98479837 -35.7664621 155.37720765 -39 156 C-52.81809029 103.93540982 -26.04040217 45.37591685 -1 1 C-0.67 0.67 -0.34 0.34 0 0 Z " fill="#FEA621" transform="translate(69,272)"/>
<path d="M0 0 C4.0280033 1.34266777 4.80166765 3.78861003 6.625 7.3671875 C6.96846466 8.02487122 7.31192932 8.68255493 7.665802 9.36016846 C8.78984611 11.52552591 9.89644628 13.69913473 11 15.875 C11.37960876 16.61796326 11.75921753 17.36092651 12.15032959 18.12640381 C29.66687887 52.49370913 44.22025184 90.23628259 44.1875 129.3125 C44.18669434 130.31563232 44.18588867 131.31876465 44.18505859 132.35229492 C44.02338501 151.97661499 44.02338501 151.97661499 40 156 C39.01 155.67 38.02 155.34 37 155 C23.46594083 153.62199939 12.5176044 155.24896428 1.1875 163.125 C-6.67177991 169.70287557 -13.25297756 180.6137341 -14.17480469 190.96240234 C-14.47682496 197.4289254 -14.27432066 203.64030623 -13 210 C-17.70373139 214.70373139 -32.66311613 213.2681007 -39.0625 213.3125 C-81.83854011 213.12756402 -121.6211255 196.14964571 -159.0625 176.9375 C-160.40199707 176.2580835 -160.40199707 176.2580835 -161.76855469 175.56494141 C-162.5784082 175.14003418 -163.38826172 174.71512695 -164.22265625 174.27734375 C-164.93172119 173.90859131 -165.64078613 173.53983887 -166.37133789 173.15991211 C-168 172 -168 172 -169 169 C-168.13761719 168.44054687 -167.27523438 167.88109375 -166.38671875 167.3046875 C-141.2940804 150.88251113 -117.88479651 132.0722933 -95.90625 111.6875 C-94.02232053 109.94537167 -92.12708619 108.21535838 -90.21875 106.5 C-83.86648482 100.77598083 -77.74415115 94.84881027 -71.6875 88.8125 C-70.93452637 88.06411865 -70.18155273 87.3157373 -69.40576172 86.54467773 C-65.30585593 82.4334312 -61.37728752 78.23231559 -57.58813477 73.83325195 C-55.32864129 71.2250219 -52.97706542 68.71261528 -50.625 66.1875 C-46.38813583 61.59575319 -42.34594117 56.89045886 -38.4296875 52.01953125 C-36.63835739 49.7933284 -34.83261697 47.58511884 -33.0078125 45.38671875 C-21.04557725 30.92333843 -10.26235702 15.70627102 0 0 Z " fill="#FE3131" transform="translate(441,272)"/>
<path d="M0 0 C-0.15726563 0.83273438 -0.31453125 1.66546875 -0.4765625 2.5234375 C-2.51265854 16.04676195 -1.12885664 26.93351501 6.8125 38.3125 C13.60462221 46.6680263 21.62729733 52.11454794 32 55 C34.7100484 55.16118231 37.29733792 55.23576182 40 55.1875 C41.02867187 55.1865332 41.02867187 55.1865332 42.078125 55.18554688 C46.14782229 55.15059718 50.00743659 54.77979754 54 54 C66.5115719 102.37807803 44.15341723 154.62992256 22.5 197 C22.19672791 197.59938385 21.89345581 198.1987677 21.58099365 198.8163147 C20.72125315 200.50818185 19.84536094 202.19181211 18.96875 203.875 C18.21754883 205.32519531 18.21754883 205.32519531 17.45117188 206.8046875 C16 209 16 209 13 210 C12.44054687 209.13761719 11.88109375 208.27523437 11.3046875 207.38671875 C-5.11748887 182.2940804 -23.9277067 158.88479651 -44.3125 136.90625 C-46.05462833 135.02232053 -47.78464162 133.12708619 -49.5 131.21875 C-55.22401917 124.86648482 -61.15118973 118.74415115 -67.1875 112.6875 C-67.93588135 111.93452637 -68.6842627 111.18155273 -69.45532227 110.40576172 C-73.5665688 106.30585593 -77.76768441 102.37728752 -82.16674805 98.58813477 C-84.7749781 96.32864129 -87.28738472 93.97706542 -89.8125 91.625 C-94.40424681 87.38813583 -99.10954114 83.34594117 -103.98046875 79.4296875 C-106.2066716 77.63835739 -108.41488116 75.83261697 -110.61328125 74.0078125 C-125.07666157 62.04557725 -140.29372898 51.26235702 -156 41 C-154.66079739 36.98239217 -153.08711757 36.69818959 -149.3671875 34.77734375 C-148.49797668 34.32490547 -148.49797668 34.32490547 -147.61120605 33.86332703 C-145.70486963 32.87641065 -143.79084138 31.90582289 -141.875 30.9375 C-140.89095184 30.43570221 -140.89095184 30.43570221 -139.88702393 29.92376709 C-112.54856298 15.9945546 -84.28921205 4.61349276 -54 -1 C-53.30471191 -1.12987305 -52.60942383 -1.25974609 -51.89306641 -1.39355469 C-35.08097515 -4.37291263 -16.45846377 -4.86799633 0 0 Z " fill="#FEA621" transform="translate(428,30)"/>
<path d="M0 0 C4.40979595 4.24796858 6.52119872 8.27402265 6.91796875 14.34765625 C6.26636271 21.30206976 0.46330741 26.4469618 -4.62109375 30.69921875 C-12.87717281 36.68939582 -21.83756003 40.05144548 -31.546875 42.890625 C-32.34254883 43.12475098 -33.13822266 43.35887695 -33.95800781 43.60009766 C-48.93653116 47.71491453 -63.75005184 49.17114253 -79.234375 49.015625 C-80.06515564 49.01097229 -80.89593628 49.00631958 -81.75189209 49.00152588 C-93.79585773 48.92253482 -105.57061052 48.64516228 -117.296875 45.640625 C-118.1120459 45.43663086 -118.9272168 45.23263672 -119.76708984 45.02246094 C-136.60970312 40.68311148 -154.10102955 34.7649758 -164.296875 19.640625 C-165.75121215 15.27761354 -166.26650133 11.73531394 -164.2734375 7.4296875 C-155.25252125 -7.17323218 -137.42099236 -13.63925337 -121.48144531 -17.84375 C-83.41478198 -26.82863969 -31.38987606 -26.59752857 0 0 Z " fill="#1AA0FD" transform="translate(335.296875,191.359375)"/>
<path d="M0 0 C3.5355003 1.38188858 6.76566995 2.92788675 10.0625 4.8125 C48.81719323 26.01692711 99.85143101 25.73978232 141.4765625 13.81640625 C151.46078013 10.70711606 161.66410255 6.38882651 170 0 C170.66 0 171.32 0 172 0 C172.08746928 4.04152915 172.14054982 8.08281305 172.1875 12.125 C172.21263672 13.26710938 172.23777344 14.40921875 172.26367188 15.5859375 C172.33492929 23.75678775 171.21707673 29.11437631 165.6953125 35.4296875 C156.28935137 44.14212154 143.87030285 48.61276469 131.8125 52.1875 C130.5762085 52.56273804 130.5762085 52.56273804 129.31494141 52.94555664 C115.66600035 56.8192586 101.78278138 57.35192825 87.69189453 57.31567383 C85.13400661 57.31251114 82.57727785 57.33609849 80.01953125 57.36132812 C55.76738487 57.45384582 25.31700058 52.95013142 6.76171875 35.94921875 C1.95703533 30.66705127 -0.26981182 26.30665289 -0.1953125 19.04296875 C-0.18886719 17.93115234 -0.18242187 16.81933594 -0.17578125 15.67382812 C-0.15902344 14.52333984 -0.14226562 13.37285156 -0.125 12.1875 C-0.11597656 11.01767578 -0.10695312 9.84785156 -0.09765625 8.64257812 C-0.07413732 5.76150947 -0.04126852 2.88086011 0 0 Z " fill="#1AA0FD" transform="translate(170,285)"/>
<path d="M0 0 C0.83660156 0.50789062 1.67320312 1.01578125 2.53515625 1.5390625 C41.5830718 24.82013971 90.55164487 27.13171755 133.99462891 16.45239258 C147.10954006 13.06466116 158.43969614 8.14887615 170 1 C170.66 0.67 171.32 0.34 172 0 C172.11710979 3.99974981 172.18755489 7.99905281 172.25 12 C172.28351563 13.12535156 172.31703125 14.25070313 172.3515625 15.41015625 C172.44960161 23.79250021 171.33057142 28.9837227 165.875 35.5625 C153.86918106 45.74134649 140.28601122 51.46883724 125 55 C124.35579102 55.15098145 123.71158203 55.30196289 123.04785156 55.45751953 C99.78113738 60.61985655 71.16770212 60.64876058 48 55 C47.26023926 54.83371094 46.52047852 54.66742188 45.75830078 54.49609375 C30.74144897 51.07813802 11.75575047 44.98181229 2.5 31.75 C0.24463593 27.61516587 -0.12032556 24.66673932 -0.09765625 20.01953125 C-0.09443359 18.85615234 -0.09121094 17.69277344 -0.08789062 16.49414062 C-0.07951172 15.27919922 -0.07113281 14.06425781 -0.0625 12.8125 C-0.05798828 11.58595703 -0.05347656 10.35941406 -0.04882812 9.09570312 C-0.03703065 6.06375332 -0.02056921 3.03190094 0 0 Z " fill="#1AA0FD" transform="translate(170,233)"/>
<path d="M0 0 C7.02816967 3.66024026 11.97257659 8.10140108 15.3046875 15.39453125 C17.40190882 22.47497315 17.68961372 31.02625456 14.625 37.875 C10.23381176 44.93775031 4.330211 50.26209624 -3.8125 52.375 C-13.41910049 53.79317594 -20.81207334 51.81673165 -28.8125 46.375 C-34.44041556 41.60350637 -37.32284728 35.80000975 -38.12890625 28.515625 C-38.46899481 19.8707931 -36.3906925 14.20545742 -31.625 7.125 C-23.19138921 -1.12119721 -11.23367746 -4.65975261 0 0 Z " fill="#1AA0FD" transform="translate(53.8125,17.625)"/>
<path d="M0 0 C5.78257796 4.27497728 10.2410382 9.63282457 12.1875 16.6171875 C13.09228282 26.55705506 12.29740004 34.03138151 6 41.8671875 C0.56580349 47.73981175 -6.28482818 50.70561622 -14.25 51.0546875 C-22.18005591 50.9681778 -29.03040324 48.24262937 -34.79296875 42.71875 C-36.36427839 40.7555829 -37.61549971 38.82638804 -38.8125 36.6171875 C-39.14894531 36.00101562 -39.48539063 35.38484375 -39.83203125 34.75 C-42.79942402 28.21902595 -43.06496676 20.69350291 -40.96875 13.87109375 C-37.60997743 6.4159803 -32.53422161 1.9246549 -25.6875 -2.3203125 C-17.3530616 -5.35275118 -7.57621766 -4.41115305 0 0 Z " fill="#1AA0FD" transform="translate(57.8125,445.3828125)"/>
<path d="M0 0 C5.92516604 3.77147941 10.82849122 9.52073762 12.88671875 16.30078125 C14.75715413 26.32486215 12.66584237 34.34362174 7.1015625 42.76953125 C0.16086419 49.40175407 -7.11252113 51.83709548 -16.57421875 51.734375 C-24.12447679 51.06679303 -30.74047766 47.12464649 -35.7109375 41.45703125 C-40.52822219 33.74059042 -41.59670194 26.48976863 -40.7109375 17.45703125 C-38.08886666 8.57384733 -32.23641863 3.2078139 -24.5234375 -1.48046875 C-16.33397978 -3.76277664 -7.78332922 -3.58743024 0 0 Z " fill="#1AA0FD" transform="translate(482.7109375,444.54296875)"/>
<path d="M0 0 C6.583276 4.43105115 11.31715134 11.19770165 13 19 C13.99207902 28.76816269 11.88956352 35.65257342 5.8125 43.3125 C0.04823749 49.40510658 -5.62787001 51.21100806 -13.9375 51.5625 C-21.69621367 51.30331883 -27.2900947 49.35858851 -33.0625 44.1328125 C-39.91170627 36.79845411 -41.70971205 30.53996961 -41.4765625 20.578125 C-40.5064074 13.29400967 -36.92540689 7.45037559 -31.5625 2.5 C-22.18588855 -4.55284253 -10.51352511 -5.19393272 0 0 Z " fill="#1AA0FD" transform="translate(483,19)"/>
</svg>
